<svg width="1180" height="680" xmlns="http://www.w3.org/2000/svg" font-family="'Inter','Segoe UI',system-ui,sans-serif">
  <defs>
    <marker id="a" markerWidth="7" markerHeight="7" refX="6" refY="3.5" orient="auto">
      <path d="M0,0 L7,3.5 L0,7 L1.5,3.5 Z" fill="#94a3b8"/>
    </marker>
    <marker id="ab" markerWidth="7" markerHeight="7" refX="6" refY="3.5" orient="auto">
      <path d="M0,0 L7,3.5 L0,7 L1.5,3.5 Z" fill="#60a5fa"/>
    </marker>
    <marker id="ag" markerWidth="7" markerHeight="7" refX="6" refY="3.5" orient="auto">
      <path d="M0,0 L7,3.5 L0,7 L1.5,3.5 Z" fill="#4ade80"/>
    </marker>
    <marker id="ap" markerWidth="7" markerHeight="7" refX="6" refY="3.5" orient="auto">
      <path d="M0,0 L7,3.5 L0,7 L1.5,3.5 Z" fill="#c084fc"/>
    </marker>
    <marker id="ay" markerWidth="7" markerHeight="7" refX="6" refY="3.5" orient="auto">
      <path d="M0,0 L7,3.5 L0,7 L1.5,3.5 Z" fill="#fbbf24"/>
    </marker>
    <filter id="sh" x="-5%" y="-5%" width="110%" height="110%">
      <feDropShadow dx="0" dy="2" stdDeviation="3" flood-color="#000" flood-opacity="0.4"/>
    </filter>
  </defs>

  <!-- ░░ BACKGROUND ░░ -->
  <rect width="1180" height="680" fill="#0f172a"/>

  <!-- ░░ TITLE ░░ -->
  <text x="590" y="32" text-anchor="middle" fill="#f1f5f9" font-size="18" font-weight="700">KlarKI — System Architecture</text>
  <text x="590" y="50" text-anchor="middle" fill="#475569" font-size="11">EU AI Act + GDPR Compliance Auditor · Local-first · No external API calls</text>

  <!-- ═══════════════════════════════════════════════════════════
       LAYER 1 — FRONTEND
  ═══════════════════════════════════════════════════════════ -->
  <rect x="20" y="62" width="1140" height="58" rx="8" fill="#0f2847" stroke="#3b82f6" stroke-width="1.5" filter="url(#sh)"/>
  <text x="30" y="78" fill="#60a5fa" font-size="9" font-weight="700" letter-spacing="1.2">FRONTEND</text>
  <text x="590" y="85" text-anchor="middle" fill="#bfdbfe" font-size="12" font-weight="600">React 18 + TypeScript + Vite + Tailwind CSS — served by Nginx · Port 80</text>
  <text x="590" y="102" text-anchor="middle" fill="#60a5fa" font-size="10">Upload Wizard · Dashboard · Article Detail · Classifier Metrics · Audit Polling (2 s)</text>

  <!-- ARROW: Frontend → API -->
  <line x1="590" y1="120" x2="590" y2="132" stroke="#94a3b8" stroke-width="1.5" marker-end="url(#a)"/>
  <text x="596" y="129" fill="#475569" font-size="9">REST /api/v1</text>

  <!-- ═══════════════════════════════════════════════════════════
       LAYER 2 — API
  ═══════════════════════════════════════════════════════════ -->
  <rect x="20" y="133" width="1140" height="50" rx="8" fill="#1e1b4b" stroke="#818cf8" stroke-width="1.5" filter="url(#sh)"/>
  <text x="30" y="149" fill="#a5b4fc" font-size="9" font-weight="700" letter-spacing="1.2">API LAYER</text>
  <text x="590" y="158" text-anchor="middle" fill="#c7d2fe" font-size="12" font-weight="600">FastAPI 0.111 · Uvicorn · Pydantic v2 · Python 3.11 · structlog</text>
  <text x="590" y="174" text-anchor="middle" fill="#a5b4fc" font-size="10">audit.py · reports.py · wizard.py · metrics.py · monitoring.py</text>

  <!-- ═══════════════════════════════════════════════════════════
       LAYER 3 — PIPELINE SERVICES (4 boxes)
  ═══════════════════════════════════════════════════════════ -->

  <!-- ─── Box A: Ingestion ─── -->
  <rect x="20" y="200" width="255" height="205" rx="8" fill="#052e16" stroke="#22c55e" stroke-width="1.5" filter="url(#sh)"/>
  <rect x="20" y="200" width="255" height="26" rx="8" fill="#14532d"/>
  <rect x="20" y="214" width="255" height="12" fill="#14532d"/>
  <text x="147" y="217" text-anchor="middle" fill="#86efac" font-size="10" font-weight="700">① INGESTION</text>

  <text x="35" y="242" fill="#4ade80" font-size="10" font-weight="600">Parse</text>
  <text x="35" y="255" fill="#86efac" font-size="9">PyMuPDF · pdfplumber tables · OCR</text>
  <line x1="35" y1="261" x2="260" y2="261" stroke="#166534" stroke-width="0.7"/>

  <text x="35" y="275" fill="#4ade80" font-size="10" font-weight="600">Proposition Chunking</text>
  <text x="35" y="287" fill="#86efac" font-size="9">512 chars · 50 overlap · UUID4</text>
  <text x="35" y="298" fill="#86efac" font-size="9">~80–120 chunks / 20-page doc</text>
  <line x1="35" y1="304" x2="260" y2="304" stroke="#166534" stroke-width="0.7"/>

  <text x="35" y="318" fill="#4ade80" font-size="10" font-weight="600">Language Detection</text>
  <text x="35" y="330" fill="#86efac" font-size="9">langdetect → en / de per chunk</text>
  <line x1="35" y1="336" x2="260" y2="336" stroke="#166534" stroke-width="0.7"/>

  <text x="35" y="350" fill="#4ade80" font-size="10" font-weight="600">NER Phase 1 — Entity Extraction</text>
  <text x="35" y="362" fill="#86efac" font-size="9">spaCy · PROHIBITED_USE · RISK_TIER</text>
  <text x="35" y="373" fill="#86efac" font-size="9">AI_SYSTEM · ARTICLE · ACTOR...</text>
  <line x1="35" y1="379" x2="260" y2="379" stroke="#166534" stroke-width="0.7"/>

  <text x="35" y="393" fill="#4ade80" font-size="10" font-weight="600">BERT / Triton Classifier + NER Ph.2</text>
  <text x="35" y="404" fill="#86efac" font-size="9">8 ArticleDomain classes · correction</text>

  <!-- ARROW A → B -->
  <line x1="275" y1="302" x2="292" y2="302" stroke="#94a3b8" stroke-width="1.5" marker-end="url(#a)"/>

  <!-- ─── Box B: Legal Gate ─── -->
  <rect x="293" y="200" width="252" height="205" rx="8" fill="#1c1107" stroke="#f59e0b" stroke-width="1.5" filter="url(#sh)"/>
  <rect x="293" y="200" width="252" height="26" rx="8" fill="#451a03"/>
  <rect x="293" y="214" width="252" height="12" fill="#451a03"/>
  <text x="419" y="217" text-anchor="middle" fill="#fcd34d" font-size="10" font-weight="700">② LEGAL GATE  (concurrent)</text>

  <text x="308" y="242" fill="#fbbf24" font-size="10" font-weight="600">Actor Classification</text>
  <text x="308" y="254" fill="#fef3c7" font-size="9">BERT model ≥ 0.80 → 39 regex</text>
  <text x="308" y="265" fill="#fef3c7" font-size="9">NER AI_SYSTEM ownership wire</text>
  <text x="308" y="276" fill="#fef3c7" font-size="9">→ provider · deployer · importer</text>
  <line x1="308" y1="282" x2="530" y2="282" stroke="#78350f" stroke-width="0.7"/>

  <text x="308" y="297" fill="#fbbf24" font-size="10" font-weight="600">Applicability Engine  (4-step tree)</text>
  <text x="308" y="309" fill="#fef3c7" font-size="9">Step 1: Art. 5 Prohibited</text>
  <text x="308" y="320" fill="#fef3c7" font-size="9">  regex + NER PROHIBITED_USE + ML</text>
  <text x="308" y="331" fill="#fef3c7" font-size="9">Step 2: Annex III  8 categories</text>
  <text x="308" y="342" fill="#fef3c7" font-size="9">  60+ patterns + NER RISK_TIER + ML</text>
  <text x="308" y="353" fill="#fef3c7" font-size="9">Step 3: Annex I safety signals ≥ 2</text>
  <text x="308" y="364" fill="#fef3c7" font-size="9">Step 4: ML risk augmentation</text>
  <line x1="308" y1="370" x2="530" y2="370" stroke="#78350f" stroke-width="0.7"/>

  <text x="308" y="385" fill="#fbbf24" font-size="10" font-weight="600">→ applicable_articles = [9..15]  or  []</text>
  <text x="308" y="396" fill="#fef3c7" font-size="9">Minimal → 100%  ·  Prohibited → stop</text>

  <!-- ARROW B → C -->
  <line x1="545" y1="302" x2="562" y2="302" stroke="#94a3b8" stroke-width="1.5" marker-end="url(#a)"/>

  <!-- ─── Box C: RAG + LangGraph ─── -->
  <rect x="563" y="200" width="365" height="205" rx="8" fill="#16062b" stroke="#a855f7" stroke-width="1.5" filter="url(#sh)"/>
  <rect x="563" y="200" width="365" height="26" rx="8" fill="#3b0764"/>
  <rect x="563" y="214" width="365" height="12" fill="#3b0764"/>
  <text x="745" y="217" text-anchor="middle" fill="#d8b4fe" font-size="10" font-weight="700">③ RAG + LANGGRAPH  (7 articles · asyncio.gather)</text>

  <text x="578" y="242" fill="#c084fc" font-size="10" font-weight="600">Top-3 Chunk Selection per Article</text>
  <text x="578" y="254" fill="#e9d5ff" font-size="9">e5-small cosine similarity vs article topic query</text>
  <text x="578" y="265" fill="#e9d5ff" font-size="9">selects 3 best query chunks from N domain chunks</text>
  <line x1="578" y1="271" x2="913" y2="271" stroke="#581c87" stroke-width="0.7"/>

  <text x="578" y="286" fill="#c084fc" font-size="10" font-weight="600">Hybrid RAG  (3 calls / article)</text>
  <text x="578" y="298" fill="#e9d5ff" font-size="9">BM25 top-10 keyword  +  ChromaDB vector top-10</text>
  <text x="578" y="309" fill="#e9d5ff" font-size="9">→ RRF merge (k=60)  →  cross-encoder top-5</text>
  <text x="578" y="320" fill="#e9d5ff" font-size="9">queries regulatory KB filtered by article_num</text>
  <line x1="578" y1="326" x2="913" y2="326" stroke="#581c87" stroke-width="0.7"/>

  <text x="578" y="341" fill="#c084fc" font-size="10" font-weight="600">LangGraph 3-Node Graph  (3 Ollama calls / article)</text>
  <text x="578" y="353" fill="#e9d5ff" font-size="9">legal_agent   → extract requirement checklist</text>
  <text x="578" y="364" fill="#e9d5ff" font-size="9">technical_agent  → Found / Missing per req</text>
  <text x="578" y="375" fill="#e9d5ff" font-size="9">synthesis_agent → score 0–100 · gaps · recs</text>
  <line x1="578" y1="381" x2="913" y2="381" stroke="#581c87" stroke-width="0.7"/>

  <text x="578" y="396" fill="#c084fc" font-size="10" font-weight="600">7 × 3 = 21 Ollama calls  (concurrent)</text>
  <text x="578" y="406" fill="#e9d5ff" font-size="9">Minimal risk → 0 LLM calls  →  7 ArticleScores</text>

  <!-- ARROW C → D -->
  <line x1="928" y1="302" x2="945" y2="302" stroke="#94a3b8" stroke-width="1.5" marker-end="url(#a)"/>

  <!-- ─── Box D: Scoring ─── -->
  <rect x="946" y="200" width="214" height="205" rx="8" fill="#041a10" stroke="#10b981" stroke-width="1.5" filter="url(#sh)"/>
  <rect x="946" y="200" width="214" height="26" rx="8" fill="#064e3b"/>
  <rect x="946" y="214" width="214" height="12" fill="#064e3b"/>
  <text x="1053" y="217" text-anchor="middle" fill="#6ee7b7" font-size="10" font-weight="700">④ SCORING + REPORT</text>

  <text x="961" y="242" fill="#34d399" font-size="10" font-weight="600">Evidence Mapping</text>
  <text x="961" y="254" fill="#a7f3d0" font-size="9">22 terms × regex synonyms</text>
  <text x="961" y="265" fill="#a7f3d0" font-size="9">NLI cross-encoder ≥ 0.5</text>
  <text x="961" y="276" fill="#a7f3d0" font-size="9">→ EvidenceMap coverage</text>
  <line x1="961" y1="282" x2="1145" y2="282" stroke="#065f46" stroke-width="0.7"/>

  <text x="961" y="297" fill="#34d399" font-size="10" font-weight="600">Compliance Score</text>
  <text x="961" y="309" fill="#a7f3d0" font-size="9">mean(applicable only)</text>
  <text x="961" y="320" fill="#a7f3d0" font-size="9">confidence · human review flag</text>
  <line x1="961" y1="327" x2="1145" y2="327" stroke="#065f46" stroke-width="0.7"/>

  <text x="961" y="342" fill="#34d399" font-size="10" font-weight="600">Report Generation</text>
  <text x="961" y="354" fill="#a7f3d0" font-size="9">Jinja2 → WeasyPrint PDF</text>
  <text x="961" y="365" fill="#a7f3d0" font-size="9">Full JSON ComplianceReport</text>
  <line x1="961" y1="372" x2="1145" y2="372" stroke="#065f46" stroke-width="0.7"/>

  <text x="961" y="387" fill="#34d399" font-size="10" font-weight="600">Privacy</text>
  <text x="961" y="398" fill="#a7f3d0" font-size="9">File deleted after audit</text>
  <text x="961" y="409" fill="#a7f3d0" font-size="9">In-memory store only</text>

  <!-- ═══════════════════════════════════════════════════════════
       VERTICAL ARROWS: API → Service Boxes
  ═══════════════════════════════════════════════════════════ -->
  <line x1="147" y1="183" x2="147" y2="200" stroke="#22c55e" stroke-width="1.2" marker-end="url(#ag)"/>
  <line x1="419" y1="183" x2="419" y2="200" stroke="#f59e0b" stroke-width="1.2" marker-end="url(#ay)"/>
  <line x1="745" y1="183" x2="745" y2="200" stroke="#a855f7" stroke-width="1.2" marker-end="url(#ap)"/>
  <line x1="1053" y1="183" x2="1053" y2="200" stroke="#10b981" stroke-width="1.2" marker-end="url(#ag)"/>

  <!-- ═══════════════════════════════════════════════════════════
       LAYER 4 — INFRASTRUCTURE
  ═══════════════════════════════════════════════════════════ -->

  <!-- ─── ChromaDB ─── -->
  <rect x="20" y="430" width="192" height="110" rx="8" fill="#0c1a3d" stroke="#3b82f6" stroke-width="1.5" filter="url(#sh)"/>
  <rect x="20" y="430" width="192" height="24" rx="8" fill="#1e3a8a"/>
  <rect x="20" y="442" width="192" height="12" fill="#1e3a8a"/>
  <text x="116" y="447" text-anchor="middle" fill="#93c5fd" font-size="10" font-weight="700">ChromaDB</text>
  <text x="116" y="466" text-anchor="middle" fill="#bfdbfe" font-size="9">eu_ai_act · gdpr · checklist</text>
  <text x="116" y="478" text-anchor="middle" fill="#bfdbfe" font-size="9">~435 regulatory chunks</text>
  <text x="116" y="490" text-anchor="middle" fill="#bfdbfe" font-size="9">e5-small vectors · 384 dim</text>
  <text x="116" y="503" text-anchor="middle" fill="#bfdbfe" font-size="9">BM25 index in-memory</text>
  <text x="116" y="530" text-anchor="middle" fill="#60a5fa" font-size="9" font-weight="600">Port 8001 (internal)</text>

  <!-- ─── Ollama ─── -->
  <rect x="224" y="430" width="192" height="110" rx="8" fill="#1a1100" stroke="#f59e0b" stroke-width="1.5" filter="url(#sh)"/>
  <rect x="224" y="430" width="192" height="24" rx="8" fill="#451a03"/>
  <rect x="224" y="442" width="192" height="12" fill="#451a03"/>
  <text x="320" y="447" text-anchor="middle" fill="#fcd34d" font-size="10" font-weight="700">Ollama</text>
  <text x="320" y="466" text-anchor="middle" fill="#fef3c7" font-size="9">phi3:mini 3.8B Q4 (default)</text>
  <text x="320" y="478" text-anchor="middle" fill="#fef3c7" font-size="9">temp=0 · seed=42 · top_k=1</text>
  <text x="320" y="490" text-anchor="middle" fill="#fef3c7" font-size="9">LangGraph agents</text>
  <text x="320" y="502" text-anchor="middle" fill="#fef3c7" font-size="9">chunk classification</text>
  <text x="320" y="530" text-anchor="middle" fill="#fbbf24" font-size="9" font-weight="600">Port 11434 (internal)</text>

  <!-- ─── BERT Models ─── -->
  <rect x="428" y="430" width="192" height="110" rx="8" fill="#100820" stroke="#8b5cf6" stroke-width="1.5" filter="url(#sh)"/>
  <rect x="428" y="430" width="192" height="24" rx="8" fill="#2e1065"/>
  <rect x="428" y="442" width="192" height="12" fill="#2e1065"/>
  <text x="524" y="447" text-anchor="middle" fill="#c4b5fd" font-size="10" font-weight="700">Specialist BERT Models</text>
  <text x="524" y="466" text-anchor="middle" fill="#ede9fe" font-size="9">deepset/gbert-base fine-tuned</text>
  <text x="524" y="478" text-anchor="middle" fill="#ede9fe" font-size="9">article classifier · 8-class</text>
  <text x="524" y="490" text-anchor="middle" fill="#ede9fe" font-size="9">actor · risk · prohibited</text>
  <text x="524" y="502" text-anchor="middle" fill="#ede9fe" font-size="9">ONNX export for Triton</text>
  <text x="524" y="530" text-anchor="middle" fill="#a78bfa" font-size="9" font-weight="600">training/artifacts/</text>

  <!-- ─── Triton ─── -->
  <rect x="632" y="430" width="192" height="110" rx="8" fill="#0d0518" stroke="#7c3aed" stroke-width="1.5" filter="url(#sh)"/>
  <rect x="632" y="430" width="192" height="24" rx="8" fill="#3b0764"/>
  <rect x="632" y="442" width="192" height="12" fill="#3b0764"/>
  <text x="728" y="447" text-anchor="middle" fill="#c084fc" font-size="10" font-weight="700">NVIDIA Triton  (opt-in)</text>
  <text x="728" y="466" text-anchor="middle" fill="#f3e8ff" font-size="9">GPU inference server</text>
  <text x="728" y="478" text-anchor="middle" fill="#f3e8ff" font-size="9">gBERT ONNX · e5-small ONNX</text>
  <text x="728" y="490" text-anchor="middle" fill="#f3e8ff" font-size="9">spaCy NER Python backend</text>
  <text x="728" y="502" text-anchor="middle" fill="#f3e8ff" font-size="9">50–100× faster classification</text>
  <text x="728" y="530" text-anchor="middle" fill="#a855f7" font-size="9" font-weight="600">gRPC :8001 · HTTP :8002</text>

  <!-- ─── spaCy + Obligations ─── -->
  <rect x="836" y="430" width="324" height="110" rx="8" fill="#061210" stroke="#10b981" stroke-width="1.5" filter="url(#sh)"/>
  <rect x="836" y="430" width="324" height="24" rx="8" fill="#064e3b"/>
  <rect x="836" y="442" width="324" height="12" fill="#064e3b"/>
  <text x="998" y="447" text-anchor="middle" fill="#6ee7b7" font-size="10" font-weight="700">spaCy NER  +  Obligation Schemas</text>
  <text x="900" y="466" text-anchor="middle" fill="#a7f3d0" font-size="9">de_core_news_lg</text>
  <text x="900" y="478" text-anchor="middle" fill="#a7f3d0" font-size="9">8 entity type labels</text>
  <text x="900" y="490" text-anchor="middle" fill="#a7f3d0" font-size="9">NER Phase 1 + 2</text>
  <line x1="970" y1="435" x2="970" y2="535" stroke="#065f46" stroke-width="0.7"/>
  <text x="1090" y="466" text-anchor="middle" fill="#a7f3d0" font-size="9">data/obligations/</text>
  <text x="1090" y="478" text-anchor="middle" fill="#a7f3d0" font-size="9">JSONL obligation schemas</text>
  <text x="1090" y="490" text-anchor="middle" fill="#a7f3d0" font-size="9">actor · evidence_required[]</text>
  <text x="998" y="530" text-anchor="middle" fill="#34d399" font-size="9" font-weight="600">training/artifacts/spacy_ner_model/</text>

  <!-- ═══════════════════════════════════════════════════════════
       ARROWS: Service Boxes → Infrastructure
  ═══════════════════════════════════════════════════════════ -->

  <!-- Ingestion → BERT Models (BERT classifier) -->
  <line x1="147" y1="405" x2="524" y2="430" stroke="#8b5cf6" stroke-width="1" stroke-dasharray="5,3" marker-end="url(#ap)"/>
  <!-- Ingestion → spaCy -->
  <line x1="210" y1="405" x2="880" y2="430" stroke="#10b981" stroke-width="1" stroke-dasharray="5,3" marker-end="url(#ag)"/>
  <!-- Legal Gate → BERT Models (actor/risk/prohibited) -->
  <line x1="419" y1="405" x2="524" y2="430" stroke="#8b5cf6" stroke-width="1" stroke-dasharray="5,3" marker-end="url(#ap)"/>
  <!-- RAG → ChromaDB -->
  <line x1="650" y1="405" x2="180" y2="430" stroke="#3b82f6" stroke-width="1" stroke-dasharray="5,3" marker-end="url(#ab)"/>
  <!-- RAG → Ollama -->
  <line x1="720" y1="405" x2="360" y2="430" stroke="#f59e0b" stroke-width="1" stroke-dasharray="5,3" marker-end="url(#ay)"/>
  <!-- RAG → Triton (opt-in) -->
  <line x1="800" y1="405" x2="728" y2="430" stroke="#7c3aed" stroke-width="1" stroke-dasharray="5,3" marker-end="url(#ap)"/>
  <!-- Scoring → Obligations -->
  <line x1="1053" y1="405" x2="1090" y2="430" stroke="#10b981" stroke-width="1" stroke-dasharray="5,3" marker-end="url(#ag)"/>

  <!-- ═══════════════════════════════════════════════════════════
       LEGEND
  ═══════════════════════════════════════════════════════════ -->
  <rect x="20" y="556" width="1140" height="112" rx="8" fill="#0f172a" stroke="#1e293b" stroke-width="1"/>
  <text x="30" y="573" fill="#64748b" font-size="9" font-weight="700" letter-spacing="1">LEGEND</text>

  <!-- Legend items row 1 -->
  <rect x="30" y="580" width="12" height="12" rx="2" fill="#0f2847" stroke="#3b82f6" stroke-width="1.5"/>
  <text x="48" y="591" fill="#94a3b8" font-size="9">Frontend (React + Nginx)</text>

  <rect x="200" y="580" width="12" height="12" rx="2" fill="#1e1b4b" stroke="#818cf8" stroke-width="1.5"/>
  <text x="218" y="591" fill="#94a3b8" font-size="9">API Layer (FastAPI)</text>

  <rect x="370" y="580" width="12" height="12" rx="2" fill="#052e16" stroke="#22c55e" stroke-width="1.5"/>
  <text x="388" y="591" fill="#94a3b8" font-size="9">Document Ingestion</text>

  <rect x="530" y="580" width="12" height="12" rx="2" fill="#1c1107" stroke="#f59e0b" stroke-width="1.5"/>
  <text x="548" y="591" fill="#94a3b8" font-size="9">Legal Gate (deterministic, no LLM)</text>

  <rect x="750" y="580" width="12" height="12" rx="2" fill="#16062b" stroke="#a855f7" stroke-width="1.5"/>
  <text x="768" y="591" fill="#94a3b8" font-size="9">RAG + LangGraph (21 Ollama calls, concurrent)</text>

  <rect x="1020" y="580" width="12" height="12" rx="2" fill="#041a10" stroke="#10b981" stroke-width="1.5"/>
  <text x="1038" y="591" fill="#94a3b8" font-size="9">Scoring + Report</text>

  <!-- Legend items row 2 -->
  <line x1="30" y1="612" x2="55" y2="612" stroke="#94a3b8" stroke-width="1.5" marker-end="url(#a)"/>
  <text x="62" y="616" fill="#94a3b8" font-size="9">data flow</text>

  <line x1="150" y1="612" x2="175" y2="612" stroke="#64748b" stroke-width="1" stroke-dasharray="4,2" marker-end="url(#a)"/>
  <text x="182" y="616" fill="#94a3b8" font-size="9">uses / calls (infra dependency)</text>

  <rect x="370" y="606" width="12" height="12" rx="2" fill="#0c1a3d" stroke="#3b82f6" stroke-width="1.5"/>
  <text x="388" y="616" fill="#94a3b8" font-size="9">ChromaDB — regulatory KB (never stores user docs)</text>

  <rect x="750" y="606" width="12" height="12" rx="2" fill="#100820" stroke="#8b5cf6" stroke-width="1.5"/>
  <text x="768" y="616" fill="#94a3b8" font-size="9">BERT specialist models (actor · risk · prohibited · article classifier)</text>

  <!-- Legend row 3 -->
  <text x="30" y="652" fill="#475569" font-size="9">Privacy: uploaded file deleted immediately after audit · ChromaDB holds only regulatory text · in-memory audit store · no external API calls</text>
  <text x="30" y="665" fill="#475569" font-size="9">Triton is optional (GPU) · Ollama is default (CPU) · all LLM calls use temperature=0, seed=42, top_k=1 for deterministic output</text>
</svg>
